<svg width="113" height="138" viewBox="0 0 113 138" fill="none" xmlns="http://www.w3.org/2000/svg">
<path d="M106.483 75.2413C106.483 106.486 84.6119 122.108 58.6163 131.169C57.255 131.631 55.7763 131.609 54.4295 131.107C28.3713 122.108 6.5 106.486 6.5 75.2413V31.4986C6.5 29.8413 7.15837 28.2519 8.33028 27.0799C9.50218 25.908 11.0916 25.2497 12.749 25.2497C25.2469 25.2497 40.8692 17.7509 51.7424 8.25252C53.0663 7.12145 54.7504 6.5 56.4916 6.5C58.2329 6.5 59.917 7.12145 61.2408 8.25252C72.1765 17.8134 87.7364 25.2497 100.234 25.2497C101.892 25.2497 103.481 25.908 104.653 27.0799C105.825 28.2519 106.483 29.8413 106.483 31.4986V75.2413Z" stroke="white" stroke-width="13" stroke-linecap="round" stroke-linejoin="round"/>
</svg>
